<svg xmlns="http://www.w3.org/2000/svg" xmlns:xlink="http://www.w3.org/1999/xlink" id="Layer_1" viewBox="0 0 985.7 101.1" style="enable-background:new 0 0 985.7 101.1;"><style>.st0{fill:#4C4C4D;}</style><g><path  d="M0 1.9h63.4v15.8H17.2V45h41.9v15.2H17.2v23.3h46.2v15.8H0V1.9z"/><path  d="M125.5 68.4l29.9-66.6h18l-45.2 98.7h-5.8L77.2 1.9h18.4l29.9 66.5z"/><path  d="M181.8 99.3h-18L209.5 1h3.9l45.7 98.3h-18.4l-8.6-19.4h-41.9L181.8 99.3zm14.5-33.1H226l-14.8-33.5-14.9 33.5z"/><path  d="M275.5 1.9h17.2v81.7h46.2v15.8h-63.3V1.9H275.5z"/><path  d="M352.9 1.9h17.2V59c0 18.6 8.5 26.3 23.1 26.3 14.7.0 23.7-7.8 23.7-26.5v-57h17.2V59c0 29.1-16.5 42.1-40.9 42.1s-40.4-13-40.4-42.1L352.9 1.9z"/><path  d="M460.5 1.7h63.3v15.8h-46.2v27.3h41.9V60h-41.9v23.3h46.2v15.8h-63.4L460.5 1.7z"/><path  d="M577.5 100.8c-11.5.0-23-3.9-31.9-9.3l6-15.5c8 5.4 17.7 8.7 26.5 8.7 11.5.0 16.8-5.7 16.8-11.9.0-6.5-3.6-10.4-21.2-16.9-19-6.9-25.5-15.9-25.5-27.6C548.1 13.6 560 0 580.8.0c10.4.0 20.7 3 26.9 6.7l-5.5 15.2c-5.7-3.2-14.3-6.5-21.8-6.5-10.3.0-15 5.7-15 12.5.0 6.2 5.3 10.1 19 15.1 21.8 8.5 28 17.1 28 29.8C612.4 90.1 599.2 100.8 577.5 100.8z"/><path  d="M636.5 1.7h63.4v15.8h-46.2v27.3h41.9V60h-41.9v23.3h46.2v15.8h-63.4V1.7z"/><path  d="M726 1.7h31.2c25.9.0 39 14.3 39 34.7.0 10.1-5.1 24.4-18.2 30.8 7.3 6.4 9.4 16.5 21.1 16.5h3.9v15.2s-3.6.8-9.3.8c-24.2.0-22.9-22.3-34.7-29-1.7.1-3.3.1-5.1.1h-10.7v28.3H726V1.7zm17.2 15.8v38.1H756c16.1.0 21.6-8.6 21.6-19.3s-5.4-18.9-21.6-18.9L743.2 17.5z"/><path  d="M856.6 68.2l30-66.6h18l-45.2 98.7h-5.8L808.4 1.7h18.4L856.6 68.2z"/><path  d="M922.4 1.7h63.4v15.8h-46.2v27.3h41.9V60h-41.9v23.3h46.2v15.8h-63.4V1.7z"/></g></svg>